<svg width="118" height="62" viewBox="0 0 118 62" fill="none" xmlns="http://www.w3.org/2000/svg">
<path d="M32.25 40.9688V48H1.125V42L15.8438 26.2188C17.3229 24.5729 18.4896 23.125 19.3438 21.875C20.1979 20.6042 20.8125 19.4688 21.1875 18.4688C21.5833 17.4479 21.7812 16.4792 21.7812 15.5625C21.7812 14.1875 21.5521 13.0104 21.0938 12.0312C20.6354 11.0312 19.9583 10.2604 19.0625 9.71875C18.1875 9.17708 17.1042 8.90625 15.8125 8.90625C14.4375 8.90625 13.25 9.23958 12.25 9.90625C11.2708 10.5729 10.5208 11.5 10 12.6875C9.5 13.875 9.25 15.2188 9.25 16.7188H0.21875C0.21875 14.0104 0.864583 11.5312 2.15625 9.28125C3.44792 7.01042 5.27083 5.20833 7.625 3.875C9.97917 2.52083 12.7708 1.84375 16 1.84375C19.1875 1.84375 21.875 2.36458 24.0625 3.40625C26.2708 4.42708 27.9375 5.90625 29.0625 7.84375C30.2083 9.76042 30.7812 12.0521 30.7812 14.7188C30.7812 16.2188 30.5417 17.6875 30.0625 19.125C29.5833 20.5417 28.8958 21.9583 28 23.375C27.125 24.7708 26.0625 26.1875 24.8125 27.625C23.5625 29.0625 22.1771 30.5521 20.6562 32.0938L12.75 40.9688H32.25ZM47.0938 21.3438H51.9062C53.4479 21.3438 54.7188 21.0833 55.7188 20.5625C56.7188 20.0208 57.4583 19.2708 57.9375 18.3125C58.4375 17.3333 58.6875 16.1979 58.6875 14.9062C58.6875 13.7396 58.4583 12.7083 58 11.8125C57.5625 10.8958 56.8854 10.1875 55.9688 9.6875C55.0521 9.16667 53.8958 8.90625 52.5 8.90625C51.3958 8.90625 50.375 9.125 49.4375 9.5625C48.5 10 47.75 10.6146 47.1875 11.4062C46.625 12.1979 46.3438 13.1562 46.3438 14.2812H37.3125C37.3125 11.7812 37.9792 9.60417 39.3125 7.75C40.6667 5.89583 42.4792 4.44792 44.75 3.40625C47.0208 2.36458 49.5208 1.84375 52.25 1.84375C55.3333 1.84375 58.0312 2.34375 60.3438 3.34375C62.6562 4.32292 64.4583 5.77083 65.75 7.6875C67.0417 9.60417 67.6875 11.9792 67.6875 14.8125C67.6875 16.25 67.3542 17.6458 66.6875 19C66.0208 20.3333 65.0625 21.5417 63.8125 22.625C62.5833 23.6875 61.0833 24.5417 59.3125 25.1875C57.5417 25.8125 55.5521 26.125 53.3438 26.125H47.0938V21.3438ZM47.0938 28.1875V23.5312H53.3438C55.8229 23.5312 58 23.8125 59.875 24.375C61.75 24.9375 63.3229 25.75 64.5938 26.8125C65.8646 27.8542 66.8229 29.0938 67.4688 30.5312C68.1146 31.9479 68.4375 33.5208 68.4375 35.25C68.4375 37.375 68.0312 39.2708 67.2188 40.9375C66.4062 42.5833 65.2604 43.9792 63.7812 45.125C62.3229 46.2708 60.6146 47.1458 58.6562 47.75C56.6979 48.3333 54.5625 48.625 52.25 48.625C50.3333 48.625 48.4479 48.3646 46.5938 47.8438C44.7604 47.3021 43.0938 46.5 41.5938 45.4375C40.1146 44.3542 38.9271 43 38.0312 41.375C37.1562 39.7292 36.7188 37.7812 36.7188 35.5312H45.75C45.75 36.6979 46.0417 37.7396 46.625 38.6562C47.2083 39.5729 48.0104 40.2917 49.0312 40.8125C50.0729 41.3333 51.2292 41.5938 52.5 41.5938C53.9375 41.5938 55.1667 41.3333 56.1875 40.8125C57.2292 40.2708 58.0208 39.5208 58.5625 38.5625C59.125 37.5833 59.4062 36.4479 59.4062 35.1562C59.4062 33.4896 59.1042 32.1562 58.5 31.1562C57.8958 30.1354 57.0312 29.3854 55.9062 28.9062C54.7812 28.4271 53.4479 28.1875 51.9062 28.1875H47.0938ZM75.5 14.1875H84.5312V50.0312C84.5312 52.5312 84.0729 54.6458 83.1562 56.375C82.2396 58.1042 80.9167 59.4167 79.1875 60.3125C77.4583 61.2083 75.3646 61.6562 72.9062 61.6562C72.1354 61.6562 71.3854 61.6146 70.6562 61.5312C69.9062 61.4479 69.1354 61.3125 68.3438 61.125L68.375 54.2188C68.875 54.3021 69.3646 54.3646 69.8438 54.4062C70.3021 54.4688 70.7708 54.5 71.25 54.5C72.1875 54.5 72.9688 54.3438 73.5938 54.0312C74.2188 53.7188 74.6875 53.2292 75 52.5625C75.3333 51.9167 75.5 51.0729 75.5 50.0312V14.1875ZM74.7812 5.375C74.7812 4.0625 75.2396 2.97917 76.1562 2.125C77.0938 1.27083 78.3229 0.84375 79.8438 0.84375C81.3854 0.84375 82.6146 1.27083 83.5312 2.125C84.4479 2.97917 84.9062 4.0625 84.9062 5.375C84.9062 6.6875 84.4479 7.77083 83.5312 8.625C82.6146 9.47917 81.3854 9.90625 79.8438 9.90625C78.3229 9.90625 77.0938 9.47917 76.1562 8.625C75.2396 7.77083 74.7812 6.6875 74.7812 5.375ZM92.1875 14.1875H101.219V50.0312C101.219 52.5312 100.76 54.6458 99.8438 56.375C98.9271 58.1042 97.6042 59.4167 95.875 60.3125C94.1458 61.2083 92.0521 61.6562 89.5938 61.6562C88.8229 61.6562 88.0729 61.6146 87.3438 61.5312C86.5938 61.4479 85.8229 61.3125 85.0312 61.125L85.0625 54.2188C85.5625 54.3021 86.0521 54.3646 86.5312 54.4062C86.9896 54.4688 87.4583 54.5 87.9375 54.5C88.875 54.5 89.6562 54.3438 90.2812 54.0312C90.9062 53.7188 91.375 53.2292 91.6875 52.5625C92.0208 51.9167 92.1875 51.0729 92.1875 50.0312V14.1875ZM91.4688 5.375C91.4688 4.0625 91.9271 2.97917 92.8438 2.125C93.7812 1.27083 95.0104 0.84375 96.5312 0.84375C98.0729 0.84375 99.3021 1.27083 100.219 2.125C101.135 2.97917 101.594 4.0625 101.594 5.375C101.594 6.6875 101.135 7.77083 100.219 8.625C99.3021 9.47917 98.0729 9.90625 96.5312 9.90625C95.0104 9.90625 93.7812 9.47917 92.8438 8.625C91.9271 7.77083 91.4688 6.6875 91.4688 5.375ZM117.875 0V48H108.844V0H117.875Z" fill="black"/>
</svg>
